<?xml version="1.0" encoding="UTF-8" standalone="no"?><!DOCTYPE svg PUBLIC "-//W3C//DTD SVG 1.1//EN" "http://www.w3.org/Graphics/SVG/1.1/DTD/svg11.dtd"><svg width="100%" height="100%" viewBox="0 0 2134 2134" version="1.1" xmlns="http://www.w3.org/2000/svg" xmlns:xlink="http://www.w3.org/1999/xlink" xml:space="preserve" xmlns:serif="http://www.serif.com/" style="fill-rule:evenodd;clip-rule:evenodd;stroke-linecap:round;stroke-linejoin:bevel;stroke-miterlimit:1.5;"><g><g><path d="M2046.16,806.824l-34.29,21.628l-170.789,107.24l-731.619,459.127l-9.232,6.092l-1.983,1.219l-37.253,23.456l-1.32,0.614l-30.663,-19.194l-5.609,-3.657l-693.048,-435.057l-47.144,-29.552l-207.718,-130.396l-2.307,-1.52l210.025,-131.919l752.726,-472.53l47.477,0l757.668,475.574l25.062,15.844l180.017,113.031Z" style="fill:#4ac0c0;fill-rule:nonzero;"/><path d="M1878.18,198.815l-0,1480.93c-0,33.977 -30.401,61.67 -68.059,61.67l-1496.62,0c-37.311,0 -67.712,-27.693 -67.712,-61.67l0,-1480.93c0,-34.294 30.401,-61.979 67.712,-61.979l1496.62,0c37.654,0 68.059,27.685 68.059,61.979Z" style="fill:#e6e6e6;fill-rule:nonzero;"/><g><g><rect x="500.601" y="411.111" width="734.976" height="97.908" style="fill:#999;"/></g><g><rect x="500.601" y="949.616" width="1116.89" height="97.908" style="fill:#999;"/></g><g><rect x="500.601" y="680.364" width="1116.89" height="97.908" style="fill:#999;"/></g></g><path d="M1061.98,1379.56l-11.54,6.801l-223.215,130.327l-27.368,16.145l-678.866,396.354l-45.501,26.35l0,-1151.95l273.33,159.508l675.903,394.652l5.274,3.117l30.995,18.129l0.988,0.567Z" style="fill:#7df0f0;fill-rule:nonzero;"/><g><path d="M2041.67,782.249c3.742,-2.187 6.806,-0.428 6.806,3.908l-0,1136.47c-0,4.337 -0.074,7.82 -0.166,7.739c-0.093,-0.081 -0.536,-0.397 -0.992,-0.709c-0.455,-0.313 -1.122,-0.76 -1.485,-0.992c-0.363,-0.235 -0.733,-0.424 -0.826,-0.424c-0.092,-0 -3.229,-1.79 -6.971,-3.974l-940.56,-549.045c-3.742,-2.183 -9.861,-5.775 -13.595,-7.978l-3.237,-1.91c-3.735,-2.202 -9.46,-5.597 -12.724,-7.546c-3.264,-1.948 -2.866,-5.32 0.884,-7.5l23.954,-13.904c3.75,-2.176 7.041,-4.085 7.311,-4.24c0.274,-0.154 0.717,-0.413 0.991,-0.567c0.274,-0.154 3.561,-2.064 7.311,-4.244l20.987,-12.195c3.75,-2.176 9.877,-5.748 13.623,-7.936l898.689,-524.951Z" style="fill:#64e5e5;fill-rule:nonzero;"/></g><circle cx="1528.19" cy="426.574" r="147.321" style="fill:#999;fill-opacity:0.68;"/><path d="M2048.47,1777.45l-0,176.726l-1.979,0l-28.357,1.319l-1838.13,0l-1.316,-27.368c33.302,-22.747 77.476,-53.414 106.164,-72.866l3.955,-2.639l96.279,-66.272l150.346,-103.857l43.518,-30.003l456.649,-314.869l30.66,-21.435c7.253,-4.61 15.497,-8.573 24.398,-11.204c10.551,-3.63 22.091,-5.937 33.63,-6.925c3.954,-0.332 7.581,-0.66 11.539,-0.332c3.954,-0.659 7.917,-0.659 11.871,-0.659c10.552,-0.328 20.775,0.659 30.663,2.635c10.548,1.979 20.112,5.281 28.684,9.892l346.196,192.551l171.117,95.281l44.513,24.729l161.225,89.679l106.164,59.02c2.971,1.651 6.265,3.298 9.564,5.277c0.664,0.332 1.651,0.992 2.643,1.32Z" style="fill:#26d9d9;fill-rule:nonzero;"/><path d="M2048.47,1839.76l-0,115.727l-1972.98,0l0,-115.727c34.622,-21.107 80.123,-49.788 109.795,-67.592l3.954,-2.639l99.243,-61.651l155.291,-96.275l44.841,-28.025l471.156,-292.454l31.651,-19.78c16.485,-9.892 37.916,-14.838 59.019,-15.169c3.955,-0.332 7.581,-0.332 11.54,-0c3.958,-0.332 7.912,-0.332 11.871,-0c9.232,-0 18.136,0.991 26.708,2.966c11.871,2.311 22.747,6.598 31.983,12.203l45.829,28.353l290.803,180.684l166.175,103.201l43.193,27.033l156.943,97.267l103.193,64.294c2.971,1.651 5.938,3.294 9.232,5.273c21.104,13.523 48.136,30.34 73.526,45.833c9.228,5.926 18.46,11.532 27.033,16.478Z" style="fill:#68ecec;fill-rule:nonzero;"/></g><g><path d="M2041.7,398.219l-0,340.136c-0,62.576 -50.804,113.379 -113.379,113.379l-1743.06,0c-62.576,0 -113.379,-50.803 -113.379,-113.379l-0,-340.136c-0,-62.575 50.803,-113.379 113.379,-113.379l1743.06,0c62.575,0 113.379,50.804 113.379,113.379Z" style="fill:#fff;stroke:#000;stroke-width:20.83px;"/><g transform="matrix(355.024,0,0,355.024,1816.59,680.104)"></g><text x="282.778px" y="680.104px" style="font-family:'BasierCircle-Bold', 'Basier Circle';font-weight:700;font-size:355.024px;">Re: [EXT]</text></g><g><path d="M1292.05,1400.37l-127.283,-94.693l655.716,-881.401c25.974,-34.912 76.075,-42.268 110.988,-16.295c34.912,25.975 42.268,76.075 16.296,110.989l-655.717,881.4Z" style="fill:#965353;fill-rule:nonzero;"/><path d="M1187.91,2042.01c-6.566,0.977 -13.26,0.663 -19.705,-0.923c-308.878,-62.526 -554.059,-300.464 -625.816,-607.329c-0.326,-1.397 -0.593,-2.808 -0.801,-4.227c-4.129,-28.121 15.613,-54.659 43.734,-58.787c3.789,-0.557 7.627,-0.691 11.445,-0.401c134.276,11.713 268.238,-26.769 375.827,-107.958l0.671,-0.508l81.232,-61.642c17.139,-12.998 40.67,-14.027 58.878,-2.575l324.354,203.719c19.335,12.133 28.45,35.704 22.308,57.689c-0.526,1.985 -16.977,58.068 -29.022,99.113l-12.361,42.11c-41.724,150.03 -107.979,292.13 -196.076,420.538c-8.186,11.482 -20.715,19.137 -34.668,21.181Z" style="fill:#e6fad1;fill-rule:nonzero;"/><path d="M1445.29,1513.83l-407.89,-303.448l103.568,-72.298c45.012,-31.421 105.464,-30.51 149.509,2.253l149.146,110.965c44.044,32.766 62.297,90.404 45.142,142.55l-39.475,119.978Z" style="fill:#965353;fill-rule:nonzero;"/><path d="M1740.36,531.984l127.284,94.691l-284.076,381.853l-127.283,-94.691l284.075,-381.853Z" style="fill:#623737;"/><path d="M839.835,1890.2c85.022,-85.571 155.1,-184.793 207.315,-293.534c-112.81,67.768 -237.602,113.225 -367.569,133.892c45.352,60.739 99.341,114.523 160.254,159.642Z" style="fill:#cdf5a3;fill-rule:nonzero;"/></g></g></svg>